<svg xmlns="http://www.w3.org/2000/svg" version="1.1" viewBox="3 3 95.0 95.0">
    <path
        d="m6.25 12.5v75c0.015625 5.1719 4.2031 9.3594 9.375 9.375h21.875v-93.75h-21.875c-5.1719 0.015625-9.3594 4.2031-9.375 9.375zm23.344 24.25c0.59766 0.57812 0.9375 1.3711 0.9375 2.2031s-0.33984 1.625-0.9375 2.2031l-8.8125 8.8438 8.8125 8.8438c0.88281 0.89453 1.1445 2.2305 0.66797 3.3945-0.47656 1.1602-1.5977 1.9297-2.8555 1.9492-0.83594 0-1.6367-0.33984-2.2188-0.9375l-11.031-11.031c-0.59766-0.58203-0.9375-1.3828-0.9375-2.2188s0.33984-1.6367 0.9375-2.2188l11.031-11.031c0.58203-0.58594 1.375-0.91406 2.2031-0.91406s1.6211 0.32812 2.2031 0.91406zm64.156-24.25v75c-0.015625 5.1719-4.2031 9.3594-9.375 9.375h-40.625v-93.75h40.625c5.1719 0.015625 9.3594 4.2031 9.375 9.375z" fill="white"/>
</svg>